<svg xmlns="http://www.w3.org/2000/svg" viewBox="0 0 292.77 54.84"><defs><style>.cls-1{fill:#333;}.cls-2{fill:#000333;}.cls-3{fill:#45d5b4;}.cls-4{fill:none;stroke:#fff;stroke-miterlimit:10;stroke-width:1.82px;}</style></defs><g id="Layer_2" data-name="Layer 2"><g id="Layer_1-2" data-name="Layer 1"><path class="cls-1" d="M75.45,6.69h4.63V46.46h24.51v4H75.45Z"/><path class="cls-2" d="M115.72,48.62a15.78,15.78,0,0,1-6-6A17,17,0,0,1,107.53,34a17,17,0,0,1,2.19-8.63,15.52,15.52,0,0,1,6-5.95,18.38,18.38,0,0,1,17.14,0,15.31,15.31,0,0,1,6,5.95A17.2,17.2,0,0,1,141,34a17.22,17.22,0,0,1-2.16,8.63,15.57,15.57,0,0,1-6,6,18.08,18.08,0,0,1-17.14,0Zm14.86-3.38a11.09,11.09,0,0,0,4.34-4.53A14.06,14.06,0,0,0,136.49,34a14.07,14.07,0,0,0-1.57-6.7,11.09,11.09,0,0,0-4.34-4.53,13.14,13.14,0,0,0-12.57,0,11.25,11.25,0,0,0-4.38,4.53A13.85,13.85,0,0,0,112,34a13.84,13.84,0,0,0,1.6,6.69A11.25,11.25,0,0,0,118,45.24a13.14,13.14,0,0,0,12.57,0Z"/><path class="cls-2" d="M162.25,34l-7.75,7.13v9.38h-4.44V4.06h4.44V35.52l19.64-18h5.5L165.57,31,181,50.46h-5.44Z"/><path class="cls-2" d="M191.21,48.62a15.78,15.78,0,0,1-6-6A17,17,0,0,1,183,34a17,17,0,0,1,2.19-8.63,15.52,15.52,0,0,1,6-5.95,18.38,18.38,0,0,1,17.14,0,15.31,15.31,0,0,1,6,5.95A17.2,17.2,0,0,1,216.48,34a17.22,17.22,0,0,1-2.16,8.63,15.57,15.57,0,0,1-6,6,18.08,18.08,0,0,1-17.14,0Zm14.85-3.38a11,11,0,0,0,4.35-4.53A14.05,14.05,0,0,0,212,34a14.07,14.07,0,0,0-1.56-6.7,11,11,0,0,0-4.35-4.53,13.14,13.14,0,0,0-12.57,0,11.29,11.29,0,0,0-4.37,4.53,13.74,13.74,0,0,0-1.6,6.7,13.73,13.73,0,0,0,1.6,6.69,11.29,11.29,0,0,0,4.37,4.53,13.14,13.14,0,0,0,12.57,0Z"/><path class="cls-2" d="M255.56,4.06v46.4h-4.25V44A13.66,13.66,0,0,1,246,49a15.6,15.6,0,0,1-7.42,1.75,16.68,16.68,0,0,1-8.38-2.13,15.26,15.26,0,0,1-5.88-5.94A17.64,17.64,0,0,1,222.23,34a17.65,17.65,0,0,1,2.12-8.7,15.05,15.05,0,0,1,5.88-5.91,17,17,0,0,1,8.38-2.09A15.52,15.52,0,0,1,245.84,19a13.68,13.68,0,0,1,5.28,4.84V4.06ZM245.21,45.24a11.25,11.25,0,0,0,4.38-4.53A13.84,13.84,0,0,0,251.18,34a13.85,13.85,0,0,0-1.59-6.7,11.25,11.25,0,0,0-4.38-4.53,12.31,12.31,0,0,0-6.22-1.6,12.46,12.46,0,0,0-6.29,1.6,11.29,11.29,0,0,0-4.37,4.53,13.74,13.74,0,0,0-1.6,6.7,13.73,13.73,0,0,0,1.6,6.69,11.29,11.29,0,0,0,4.37,4.53,12.36,12.36,0,0,0,6.29,1.6A12.21,12.21,0,0,0,245.21,45.24Z"/><path class="cls-2" d="M289.33,20.54q3.44,3.23,3.44,9.54V50.46h-4.25V45.34a10.17,10.17,0,0,1-4.41,4,15.41,15.41,0,0,1-6.91,1.44q-5.51,0-8.76-2.63a8.51,8.51,0,0,1-3.25-6.94,8.4,8.4,0,0,1,3-6.76q3-2.57,9.66-2.56h10.44v-2c0-2.84-.79-5-2.38-6.47s-3.89-2.23-6.94-2.23a17.61,17.61,0,0,0-6,1,14.88,14.88,0,0,0-4.94,2.84l-2-3.31a17.72,17.72,0,0,1,6-3.29,23.37,23.37,0,0,1,7.38-1.15Q285.89,17.32,289.33,20.54Zm-5,25a10.21,10.21,0,0,0,4-5V35.2H278q-8.44,0-8.44,5.88a5.39,5.39,0,0,0,2.19,4.54,10,10,0,0,0,6.13,1.65A11.69,11.69,0,0,0,284.33,45.55Z"/><circle class="cls-3" cx="27.42" cy="27.42" r="27.42"/><path class="cls-4" d="M0,27.42c2.51,0,1.78-6.23,4.29-6.23s2.52,7.39,5,7.39,2.51-16.12,5-16.12S16.86,38,19.37,38s2.51-17.15,5-17.15,2.51,29,5,29,2.51-43.2,5-43.2,2.51,36.89,5,36.89,2.51-24.37,5-24.37,2.51,14.89,5,14.89,2.81-8.18,5.33-8.18"/></g></g></svg>